<?xml version="1.0" encoding="UTF-8"?>
<svg xmlns="http://www.w3.org/2000/svg" xmlns:xlink="http://www.w3.org/1999/xlink" viewBox="0 0 24 24" width="24px" height="24px">
<g id="surface1145293">
<path style="fill-rule:nonzero;fill:rgb(0%,0%,0%);fill-opacity:1;stroke-width:10;stroke-linecap:butt;stroke-linejoin:round;stroke:rgb(100%,100%,100%);stroke-opacity:1;stroke-miterlimit:10;" d="M 157.660743 143.32267 L 143.32267 157.660743 L 100.338074 114.676147 L 100.338074 100.338074 L 114.676147 100.338074 Z M 157.660743 143.32267 " transform="matrix(0.13186,0,0,0.13186,0.66,0.66)"/>
<path style="fill-rule:nonzero;fill:rgb(0%,0%,0%);fill-opacity:1;stroke-width:10;stroke-linecap:butt;stroke-linejoin:round;stroke:rgb(100%,100%,100%);stroke-opacity:1;stroke-miterlimit:10;" d="M 64.492891 114.676147 C 36.557347 114.676147 14.339258 92.458058 14.339258 64.492891 C 14.339258 36.557347 36.557347 14.339258 64.492891 14.339258 C 92.458058 14.339258 114.676147 36.557347 114.676147 64.492891 C 114.676147 92.458058 92.458058 114.676147 64.492891 114.676147 Z M 64.492891 28.677332 C 44.437363 28.677332 28.677332 44.437363 28.677332 64.492891 C 28.677332 84.578043 44.437363 100.338074 64.492891 100.338074 C 84.578043 100.338074 100.338074 84.578043 100.338074 64.492891 C 100.338074 44.437363 84.578043 28.677332 64.492891 28.677332 Z M 64.492891 28.677332 " transform="matrix(0.13186,0,0,0.13186,0.66,0.66)"/>
<path style="fill-rule:nonzero;fill:rgb(0%,0%,0%);fill-opacity:1;stroke-width:10;stroke-linecap:butt;stroke-linejoin:round;stroke:rgb(100%,100%,100%);stroke-opacity:1;stroke-miterlimit:10;" d="M 90.473243 96.042577 L 95.538967 90.976853 L 113.283814 108.721699 L 108.218089 113.787424 Z M 90.473243 96.042577 " transform="matrix(0.13186,0,0,0.13186,0.66,0.66)"/>
<path style=" stroke:none;fill-rule:nonzero;fill:rgb(92.54902%,94.117647%,94.509804%);fill-opacity:1;" d="M 21.449219 19.558594 L 19.558594 21.449219 L 13.890625 15.78125 L 13.890625 13.890625 L 15.78125 13.890625 Z M 21.449219 19.558594 "/>
<path style=" stroke:none;fill-rule:nonzero;fill:rgb(92.54902%,94.117647%,94.509804%);fill-opacity:1;" d="M 9.164062 15.78125 C 5.480469 15.78125 2.550781 12.851562 2.550781 9.164062 C 2.550781 5.480469 5.480469 2.550781 9.164062 2.550781 C 12.851562 2.550781 15.78125 5.480469 15.78125 9.164062 C 15.78125 12.851562 12.851562 15.78125 9.164062 15.78125 Z M 9.164062 4.441406 C 6.519531 4.441406 4.441406 6.519531 4.441406 9.164062 C 4.441406 11.8125 6.519531 13.890625 9.164062 13.890625 C 11.8125 13.890625 13.890625 11.8125 13.890625 9.164062 C 13.890625 6.519531 11.8125 4.441406 9.164062 4.441406 Z M 9.164062 4.441406 "/>
<path style=" stroke:none;fill-rule:nonzero;fill:rgb(92.54902%,94.117647%,94.509804%);fill-opacity:1;" d="M 12.589844 13.324219 L 13.257812 12.65625 L 15.597656 14.996094 L 14.929688 15.664062 Z M 12.589844 13.324219 "/>
</g>
</svg>
